<svg xmlns="http://www.w3.org/2000/svg" width="60" height="60" viewBox="0 0 512 512"><rect width="492" height="492" x="10" y="10" fill="none" stroke="#FFF" stroke-width="20" rx="30" ry="30"/><rect width="492" height="80" x="10" y="10" fill="none" stroke="#FFF" stroke-width="20" rx="30" ry="30"/><circle cx="70" cy="50" r="15" fill="#FFF"/><circle cx="120" cy="50" r="15" fill="#FFF"/><circle cx="170" cy="50" r="15" fill="#FFF"/><g transform="translate(200, 300) rotate(-30)"><rect width="16" height="120" x="-8" y="-80" fill="#FFF"/><rect width="70" height="20" x="-35" y="-90" fill="#FFF"/></g><g transform="translate(350, 300)"><path fill="#FFF" d="M 0,-45 L 9,-38 L 32,-32 L 38,-9 L 45,0 L 38,9 L 32,32 L 9,38 L 0,45 L -9,38 L -32,32 L -38,9 L -45,0 L -38,-9 L -32,-32 L -9,-38 Z"/><circle cx="0" cy="0" r="15" fill="none" stroke="#FFF" stroke-width="10"/></g></svg>