<svg width="64" height="64" viewBox="0 0 64 64" xmlns="http://www.w3.org/2000/svg">
  <!-- Background circle -->
  <circle cx="32" cy="32" r="30" fill="none" stroke="white" stroke-width="3"/>
  
  <!-- Land masses/islands -->
  <path d="M15 25 Q20 20 28 22 Q35 24 40 20 Q45 18 50 25 Q48 35 42 38 Q35 40 28 38 Q20 40 15 35 Z" fill="white"/>
  <path d="M18 45 Q25 42 30 45 Q35 48 40 45 Q42 50 38 52 Q30 54 22 52 Q16 50 18 45 Z" fill="white"/>
  
  <!-- Water/flood waves -->
  <path d="M8 40 Q12 38 16 40 Q20 42 24 40 Q28 38 32 40 Q36 42 40 40 Q44 38 48 40 Q52 42 56 40" 
        stroke="white" stroke-width="2.5" fill="none"/>
  <path d="M8 45 Q12 43 16 45 Q20 47 24 45 Q28 43 32 45 Q36 47 40 45 Q44 43 48 45 Q52 47 56 45" 
        stroke="white" stroke-width="2.5" fill="none"/>
  <path d="M8 50 Q12 48 16 50 Q20 52 24 50 Q28 48 32 50 Q36 52 40 50 Q44 48 48 50 Q52 52 56 50" 
        stroke="white" stroke-width="2.5" fill="none"/>
  
  <!-- Small location pin -->
  <circle cx="28" cy="30" r="3" fill="white"/>
</svg>