<svg xmlns="http://www.w3.org/2000/svg" width="72" height="72" fill="none" aria-labelledby="title desc" role="img" viewBox="0 0 512 512"><title id="title">Hacker News briefs icon</title><desc id="desc">A Hacker News inspired Y tile beside digest summary lines and discussion nodes.</desc><rect width="356" height="408" x="78" y="52" stroke="#fff" stroke-width="22" rx="42"/><path stroke="#fff" stroke-linecap="round" stroke-linejoin="round" stroke-width="22" d="M350 52v82c0 18 15 33 33 33h51"/><rect width="144" height="144" x="120" y="94" stroke="#fff" stroke-width="22" rx="24"/><path stroke="#fff" stroke-linecap="round" stroke-linejoin="round" stroke-width="24" d="M154 130l38 62m38-62l-38 62m0 0v28"/><path stroke="#fff" stroke-linecap="round" stroke-width="22" d="M302 120h64M302 160h88M302 200h60"/><path stroke="#fff" stroke-linecap="round" stroke-width="20" d="M132 296h248M132 344h206"/><circle cx="152" cy="406" r="20" fill="#fff"/><circle cx="256" cy="406" r="20" fill="#fff"/><circle cx="360" cy="406" r="20" fill="#fff"/><path stroke="#fff" stroke-linecap="round" stroke-width="14" d="M172 406h64M276 406h64"/></svg>