<svg xmlns="http://www.w3.org/2000/svg" viewBox="0 0 200 200" fill="none" role="img" aria-label="Longhouse icon"><defs><linearGradient id="helmetGrad" x1="0%" y1="0%" x2="100%" y2="100%"><stop offset="0%" stop-color="#D4B87A"></stop><stop offset="50%" stop-color="#C9A66B"></stop><stop offset="100%" stop-color="#9e7c5a"></stop></linearGradient><linearGradient id="visorGrad" x1="0%" y1="0%" x2="0%" y2="100%"><stop offset="0%" stop-color="#2a2418"></stop><stop offset="100%" stop-color="#1A1410"></stop></linearGradient><filter id="glow" x="-50%" y="-50%" width="200%" height="200%"><feGaussianBlur stdDeviation="3" result="coloredBlur"></feGaussianBlur><feMerge><feMergeNode in="coloredBlur"></feMergeNode><feMergeNode in="SourceGraphic"></feMergeNode></feMerge></filter><linearGradient id="highlightGrad" x1="0%" y1="0%" x2="100%" y2="100%"><stop offset="0%" stop-color="#ffffff" stop-opacity="0.4"></stop><stop offset="100%" stop-color="#ffffff" stop-opacity="0"></stop></linearGradient><pattern id="stripes" patternUnits="userSpaceOnUse" width="6" height="3"><rect width="6" height="1.5" fill="#5D9B4A"></rect><rect y="1.5" width="6" height="1.5" fill="transparent"></rect></pattern><mask id="stripeMask"><rect width="100%" height="100%" fill="url(#stripes)"></rect></mask></defs><ellipse cx="100" cy="105" rx="65" ry="75" fill="url(#helmetGrad)" stroke="#5C4F3D" stroke-width="3"></ellipse><path d="M100 30 Q100 60 100 80" stroke="#5C4F3D" stroke-width="2.5" fill="none"></path><path d="M60 50 Q80 70 100 80" stroke="#5C4F3D" stroke-width="2" fill="none"></path><path d="M140 50 Q120 70 100 80" stroke="#5C4F3D" stroke-width="2" fill="none"></path><ellipse cx="42" cy="115" rx="18" ry="30" fill="url(#helmetGrad)" stroke="#5C4F3D" stroke-width="2.5"></ellipse><ellipse cx="158" cy="115" rx="18" ry="30" fill="url(#helmetGrad)" stroke="#5C4F3D" stroke-width="2.5"></ellipse><path d="M55 145 Q100 185 145 145 L140 165 Q100 195 60 165 Z" fill="url(#helmetGrad)" stroke="#5C4F3D" stroke-width="2"></path><path d="M70 150 Q100 165 130 150" stroke="#5C4F3D" stroke-width="2" fill="none"></path><rect x="50" y="75" rx="12" ry="12" width="100" height="55" fill="url(#visorGrad)" stroke="#C9A66B" stroke-width="2"></rect><rect x="52" y="77" rx="10" ry="10" width="96" height="51" fill="none" stroke="#C9A66B" stroke-width="0.5" opacity="0.5"></rect><g filter="url(#glow)"><ellipse cx="100" cy="88" rx="10" ry="8" fill="#5D9B4A" mask="url(#stripeMask)"></ellipse><ellipse cx="100" cy="88" rx="10" ry="8" fill="none" stroke="#5D9B4A" stroke-width="1" opacity="0.8"></ellipse></g><g filter="url(#glow)"><ellipse cx="78" cy="112" rx="12" ry="10" fill="#5D9B4A" mask="url(#stripeMask)"></ellipse><ellipse cx="78" cy="112" rx="12" ry="10" fill="none" stroke="#5D9B4A" stroke-width="1" opacity="0.8"></ellipse></g><g filter="url(#glow)"><ellipse cx="122" cy="112" rx="12" ry="10" fill="#5D9B4A" mask="url(#stripeMask)"></ellipse><ellipse cx="122" cy="112" rx="12" ry="10" fill="none" stroke="#5D9B4A" stroke-width="1" opacity="0.8"></ellipse></g><g stroke="#5D9B4A" stroke-width="1.5" opacity="0.6" filter="url(#glow)"><line x1="92" y1="93" x2="82" y2="105"></line><line x1="108" y1="93" x2="118" y2="105"></line><line x1="88" y1="115" x2="112" y2="115"></line></g><ellipse cx="85" cy="50" rx="25" ry="12" fill="url(#highlightGrad)"></ellipse><ellipse cx="130" cy="85" rx="8" ry="4" fill="#ffffff" opacity="0.15"></ellipse></svg>
