<svg xmlns="http://www.w3.org/2000/svg" aria-label="Longhouse icon" role="img" viewBox="0 0 200 200"><defs><mask id="helmetMask"><rect width="200" height="200" fill="#fff"/><rect width="96" height="51" x="52" y="77" fill="#000" rx="10" ry="10"/><path fill="none" stroke="#000" stroke-width="4" d="M100 30 Q100 60 100 80"/><path fill="none" stroke="#000" stroke-width="3" d="M60 50 Q80 70 100 80"/><path fill="none" stroke="#000" stroke-width="3" d="M140 50 Q120 70 100 80"/><path fill="none" stroke="#000" stroke-width="3" d="M70 150 Q100 165 130 150"/></mask></defs><g fill="#fff" mask="url(#helmetMask)"><ellipse cx="100" cy="105" rx="65" ry="75"/><ellipse cx="42" cy="115" rx="18" ry="30"/><ellipse cx="158" cy="115" rx="18" ry="30"/><path d="M55 145 Q100 185 145 145 L140 165 Q100 195 60 165 Z"/></g><g fill="#fff"><ellipse cx="100" cy="88" rx="9" ry="7"/><ellipse cx="78" cy="110" rx="10" ry="8"/><ellipse cx="122" cy="110" rx="10" ry="8"/></g><g fill="none" stroke="#fff" stroke-width="2.5" opacity=".8"><line x1="93" x2="83" y1="93" y2="104"/><line x1="107" x2="117" y1="93" y2="104"/><line x1="88" x2="112" y1="113" y2="113"/></g></svg>