<svg xmlns="http://www.w3.org/2000/svg" aria-label="Swarmlet icon" role="img" viewBox="0 0 200 200"><style>.fg{fill:#fff;stroke:#fff;stroke-linecap:round;stroke-linejoin:round}.bg{fill:silver;stroke:none}</style><ellipse cx="100" cy="105" class="fg" rx="65" ry="75"/><ellipse cx="42" cy="115" class="fg" rx="18" ry="30"/><ellipse cx="158" cy="115" class="fg" rx="18" ry="30"/><path d="M55 145 Q100 185 145 145 L140 165 Q100 195 60 165 Z" class="fg"/><rect width="96" height="50" x="52" y="78" class="bg" rx="12" ry="12"/><path fill="none" stroke="silver" stroke-width="5" d="M100 30 Q100 60 100 80"/><path fill="none" stroke="silver" stroke-width="4.5" d="M60 50 Q80 70 100 80"/><path fill="none" stroke="silver" stroke-width="4.5" d="M140 50 Q120 70 100 80"/><path fill="none" stroke="silver" stroke-width="4.5" d="M70 150 Q100 165 130 150"/><g fill="#fff" stroke="none" opacity=".95"><ellipse cx="100" cy="92" rx="9" ry="7"/><ellipse cx="78" cy="113" rx="10" ry="8"/><ellipse cx="122" cy="113" rx="10" ry="8"/></g><g stroke="#fff" stroke-width="3.5" opacity=".9"><line x1="93" x2="84" y1="97" y2="107"/><line x1="107" x2="116" y1="97" y2="107"/><line x1="89" x2="111" y1="116" y2="116"/></g></svg>